<svg width="73" height="73" viewBox="0 0 73 73" fill="none" xmlns="http://www.w3.org/2000/svg">
<path d="M41.2526 21.862H7.73343V15.8357H8.69916V12.7978H9.80937V15.8357H12.5089V12.7978H13.6191V15.8357H16.3185V12.7978H17.4287V15.8357H20.0332V12.7978H21.189V15.8357H23.8429V12.7978H24.9531V15.8357H27.6526V12.7978H28.7133V15.8357H31.4128V12.7978H32.523V15.8357H35.1769V12.7978H36.2871V15.8357H38.9866V12.7978H40.0473V15.8357H41.2526V21.862ZM41.2526 21.9114H7.73343V15.8813H8.69916V12.8434H9.80937V15.8813H12.5089V12.8434H13.6191V15.8813H16.3185V12.8434H17.4287V15.8813H20.0332V12.8434H21.189V15.8813H23.8429V12.8434H24.9531V15.8813H27.6526V12.8434H28.7133V15.8813H31.4128V12.8434H32.523V15.8813H35.1769V12.8434H36.2871V15.8813H38.9866V12.8434H40.0473V15.8813H41.2526V21.9114ZM39.8534 32.5686L37.9714 28.6639C37.4885 29.5003 37.0209 30.352 36.5722 31.2189L35.078 28.565C34.5647 29.4319 34.0819 30.3178 33.6294 31.2189L32.1808 28.565C31.6675 29.4319 31.1695 30.3178 30.6866 31.2189C30.2342 30.352 29.7551 29.4813 29.238 28.6145L27.7438 31.2189L26.2952 28.565C25.8123 29.4661 25.3143 30.3482 24.801 31.2189L23.4018 28.565L21.9076 31.2189L20.459 28.565L19.0104 31.2189L17.5162 28.565L16.0676 31.2189L14.5734 28.565L13.0792 31.1695C12.5317 30.3026 12.0184 29.4167 11.5355 28.5156L9.125 32.5686L7.72583 31.8462C8.17448 31.044 9.44437 28.9034 11.5355 25.4321L13.0792 28.0365L14.6228 25.3827C15.0715 26.2838 15.5543 27.1507 16.0714 27.9871L17.52 25.3333L18.9686 27.9871C19.4819 27.1202 19.9799 26.2344 20.4628 25.3333C20.9457 26.2344 21.4437 27.1164 21.957 27.9871L23.4056 25.3333L24.8048 27.9871C25.3523 27.1202 25.8504 26.2344 26.299 25.3333L27.7476 27.9377L29.2418 25.3333L30.6904 27.9871L32.1846 25.3333L33.6332 27.9871L35.0818 25.3333L36.576 27.9871L38.0703 25.2876L41.2526 31.8957L39.8534 32.5686ZM39.8534 32.618L37.9714 28.7133C37.4885 29.5498 37.0209 30.4014 36.5722 31.2683L35.078 28.6145C34.5647 29.4813 34.0819 30.3672 33.6294 31.2683L32.1808 28.6145C31.6675 29.4813 31.1695 30.3672 30.6866 31.2683C30.2342 30.4014 29.7551 29.5308 29.238 28.6639L27.7438 31.2683L26.2952 28.6145C25.8123 29.5156 25.3143 30.3976 24.801 31.2683L23.4018 28.6145L21.9076 31.2683L20.459 28.6145L19.0104 31.2683L17.5162 28.6145L16.0676 31.2683L14.5734 28.6145L13.0792 31.2189C12.5317 30.352 12.0184 29.4661 11.5355 28.565L9.125 32.618L7.72583 31.8957C8.17448 31.0934 9.44437 28.9528 11.5355 25.4815L13.0792 28.086L14.6228 25.4321C15.0715 26.3332 15.5543 27.2001 16.0714 28.0365L17.52 25.3827L18.9686 28.0365C19.4819 27.1697 19.9799 26.2838 20.4628 25.3827C20.9457 26.2838 21.4437 27.1659 21.957 28.0365L23.4056 25.3827L24.8048 28.0365C25.3523 27.1697 25.8504 26.2838 26.299 25.3827L27.7476 27.9871L29.2418 25.3827L30.6904 28.0365L32.1846 25.3827L33.6332 28.0365L35.0818 25.3827L36.576 28.0365L38.0703 25.3371L41.2526 31.9451L39.8534 32.618ZM62.1336 62.3275C61.0729 62.3275 59.7383 62.2971 58.1301 62.2325C56.3925 61.8142 54.9477 61.6051 53.7881 61.6051C53.2102 61.6051 52.7121 61.6546 52.2938 61.7496C50.9745 62.0728 49.8833 62.2325 49.0127 62.2325C48.1762 62.2325 47.5108 62.0234 47.0128 61.6051C46.5147 61.1869 46.1345 59.8866 45.8797 57.7004C45.8797 57.1225 43.6935 54.8222 39.3211 50.8034C34.9487 46.7846 32.4546 43.7467 31.8462 41.6898C31.8462 41.1423 31.025 40.4541 29.3863 39.6139C28.8084 39.6139 27.4891 40.6747 25.4321 42.7962C21.4437 47.3283 18.7291 50.5601 17.2805 52.4915C16.4136 53.5865 15.9802 54.4686 15.9802 55.1454C15.9802 55.594 16.2045 55.9476 16.6569 56.2062C17.7177 56.7841 18.7785 57.5559 19.8393 58.5216C20.7708 59.3885 21.7669 59.822 22.8277 59.822L23.1167 59.7725C25.4625 60.1261 26.6374 60.704 26.6374 61.5101V62.2325H18.4857C16.9725 61.4606 15.6418 61.0766 14.4821 61.0766C13.9042 61.0766 13.3719 61.1717 12.8891 61.3656C11.4405 61.9435 10.3341 62.2325 9.56224 62.2325C8.34177 62.0728 7.72963 61.6051 7.72963 60.8333C7.72963 59.9968 8.14786 59.0311 8.98432 57.9399C10.3036 55.978 11.9652 52.522 13.9765 47.5716C15.984 42.6213 19.3222 39.036 23.9835 36.8155C26.7477 35.078 28.854 34.2111 30.3026 34.2111H31.8462L33.7283 35.2719C40.2565 42.7316 45.4957 49.1305 49.4499 54.4648C52.119 55.8488 54.0542 56.9476 55.2633 57.7688C56.4685 58.5901 58.2935 59.1908 60.7383 59.5786C63.7914 59.7725 65.3198 60.2554 65.3198 61.0272V61.9929C65.316 62.2135 64.2552 62.3275 62.1336 62.3275ZM62.1336 62.3732C61.0729 62.3732 59.7383 62.3427 58.1301 62.2781C56.3925 61.8599 54.9477 61.6508 53.7881 61.6508C53.2102 61.6508 52.7121 61.7002 52.2938 61.7952C50.9745 62.1184 49.8833 62.2781 49.0127 62.2781C48.1762 62.2781 47.5108 62.069 47.0128 61.6508C46.5147 61.2325 46.1345 59.9322 45.8797 57.746C45.8797 57.1681 43.6935 54.8678 39.3211 50.849C34.9487 46.8302 32.4546 43.7924 31.8462 41.7354C31.8462 41.1879 31.025 40.4998 29.3863 39.6633C28.8084 39.6633 27.4891 40.7241 25.4321 42.8457C21.4437 47.3777 18.7291 50.6095 17.2805 52.541C16.4136 53.636 15.9802 54.518 15.9802 55.1948C15.9802 55.6435 16.2045 55.9971 16.6569 56.2556C17.7177 56.8335 18.7785 57.6053 19.8393 58.5711C20.7708 59.4379 21.7669 59.8714 22.8277 59.8714L23.1167 59.822C25.4625 60.1755 26.6374 60.7535 26.6374 61.5595V62.2819H18.4857C16.9725 61.5101 15.6418 61.1261 14.4821 61.1261C13.9042 61.1261 13.3719 61.2211 12.8891 61.415C11.4405 61.9929 10.3341 62.2819 9.56224 62.2819C8.34177 62.1222 7.72963 61.6546 7.72963 60.8827C7.72963 60.0463 8.14786 59.0844 8.98432 57.9893C10.3036 56.0275 11.9652 52.5714 13.9765 47.6211C15.984 42.6708 19.3222 39.0854 23.9835 36.865C26.7477 35.1274 28.854 34.2605 30.3026 34.2605H31.8462L33.7283 35.3213C40.2565 42.781 45.4957 49.1799 49.4499 54.5142C52.119 55.8982 54.0542 56.997 55.2633 57.8183C56.4685 58.6395 58.2935 59.2402 60.7383 59.628C63.7914 59.822 65.3198 60.3048 65.3198 61.0766V62.0424C65.316 62.2629 64.2552 62.3732 62.1336 62.3732ZM62.1336 62.0348C63.7723 62.0348 64.7381 61.9853 65.027 61.8903C65.027 61.2477 65.0118 60.8789 64.9776 60.7801C64.6886 60.3314 63.2591 60.0083 60.6851 59.8144C58.2099 59.4303 56.3621 58.8258 55.1378 58.0046C53.9173 57.1833 51.9707 56.0845 49.3016 54.7005C49.237 54.6701 49.2066 54.6359 49.2066 54.6055C45.2524 49.3016 40.0283 42.9179 33.5344 35.4582L31.7512 34.4925H30.3026C28.9186 34.4925 26.8617 35.3441 24.128 37.0475C19.5313 39.2337 16.2349 42.7848 14.2426 47.7047C12.2503 52.6246 10.5774 56.0807 9.22765 58.073C8.42541 59.1338 8.02239 60.0501 8.02239 60.8219C8.02239 61.3998 8.53567 61.7724 9.56604 61.9321C10.3036 61.9321 11.3834 61.6584 12.7978 61.1109C13.3111 60.917 13.8738 60.8219 14.4859 60.8219C15.676 60.8219 17.0257 61.1907 18.5352 61.9321H26.299V61.4987C26.299 60.8865 25.2382 60.4075 23.1167 60.0501H22.8277C21.7023 60.0501 20.6263 59.5862 19.5959 58.6509C18.5656 57.7194 17.539 56.978 16.5086 56.4343C15.9611 56.1453 15.6874 55.6967 15.6874 55.0846C15.6874 54.3774 16.1208 53.4459 16.9877 52.2862C18.4667 50.3586 21.2004 47.1268 25.185 42.5909C27.3066 40.4047 28.7057 39.3097 29.3825 39.3097L29.527 39.3591C31.2303 40.226 32.0972 40.9826 32.1314 41.6252C32.774 43.6517 35.2339 46.6401 39.5112 50.5943C42.8875 53.6816 45.0243 55.8336 45.9254 57.0578C46.085 57.2822 46.1649 57.4913 46.1649 57.6852C46.4234 59.8067 46.777 61.0462 47.2257 61.3998C47.6743 61.7534 48.2712 61.9321 49.0089 61.9321C49.8453 61.9321 50.9061 61.7724 52.1912 61.4492C52.6741 61.3542 53.2026 61.3048 53.7843 61.3048C54.9743 61.3048 56.4381 61.5139 58.1719 61.9321C59.7535 62.0043 61.0729 62.0348 62.1336 62.0348ZM62.1336 62.0842C63.7723 62.0842 64.7381 62.0348 65.027 61.9397C65.027 61.2972 65.0118 60.9284 64.9776 60.8295C64.6886 60.3809 63.2591 60.0577 60.6851 59.8638C58.2099 59.4798 56.3621 58.8752 55.1378 58.054C53.9173 57.2327 51.9707 56.1339 49.3016 54.75C49.237 54.7196 49.2066 54.6853 49.2066 54.6549C45.2524 49.351 40.0283 42.9673 33.5344 35.5076L31.7512 34.5419H30.3026C28.9186 34.5419 26.8617 35.3936 24.128 37.0969C19.5313 39.2831 16.2349 42.8342 14.2426 47.7541C12.2503 52.674 10.5774 56.1301 9.22765 58.1224C8.42541 59.1832 8.02239 60.0995 8.02239 60.8713C8.02239 61.4492 8.53567 61.8218 9.56604 61.9815C10.3036 61.9815 11.3834 61.7078 12.7978 61.1603C13.3111 60.9664 13.8738 60.8713 14.4859 60.8713C15.676 60.8713 17.0257 61.2401 18.5352 61.9815H26.299V61.5481C26.299 60.936 25.2382 60.4569 23.1167 60.0995H22.8277C21.7023 60.0995 20.6263 59.6357 19.5959 58.7003C18.5656 57.7688 17.539 57.0274 16.5086 56.4837C15.9611 56.1948 15.6874 55.7461 15.6874 55.134C15.6874 54.4268 16.1208 53.4953 16.9877 52.3356C18.4667 50.408 21.2004 47.1762 25.185 42.6403C27.3066 40.4541 28.7057 39.3591 29.3825 39.3591L29.527 39.4086C31.2303 40.2754 32.0972 41.0321 32.1314 41.6746C32.774 43.7011 35.2339 46.6896 39.5112 50.6437C42.8875 53.731 45.0243 55.883 45.9254 57.1073C46.085 57.3316 46.1649 57.5407 46.1649 57.7346C46.4234 59.8562 46.777 61.0956 47.2257 61.4492C47.6743 61.8028 48.2712 61.9815 49.0089 61.9815C49.8453 61.9815 50.9061 61.8218 52.1912 61.4987C52.6741 61.4036 53.2026 61.3542 53.7843 61.3542C54.9743 61.3542 56.4381 61.5633 58.1719 61.9815C59.7535 62.0538 61.0729 62.0842 62.1336 62.0842ZM62.1336 61.7458C63.6773 61.7458 64.529 61.7154 64.6886 61.6508V60.9284C64.6582 60.8333 64.3046 60.6888 63.6279 60.4949L61.9397 60.206L60.6394 60.1109C58.1301 59.6927 56.2518 59.0729 54.9971 58.2555C53.7424 57.4342 51.7958 56.3354 49.1609 54.9515C49.0659 54.9211 49.0012 54.8716 48.967 54.807C45.0129 49.5031 39.804 43.1194 33.3405 35.6597L31.6523 34.7928H30.3026C28.9833 34.7928 26.991 35.6141 24.3219 37.2528C24.3219 37.2832 24.3067 37.3022 24.2725 37.3022C19.7404 39.458 16.4896 42.9445 14.5316 47.7693C12.5393 52.7539 10.8664 56.2404 9.51661 58.2365C9.51661 58.2669 9.5014 58.2859 9.46718 58.2859C8.72578 59.2821 8.35698 60.1337 8.35698 60.8409C8.35698 60.9055 8.37218 60.993 8.4064 61.1071C8.43682 61.2211 8.54328 61.3314 8.71817 61.4454C8.89307 61.5595 9.19343 61.6317 9.61166 61.6622C10.3189 61.6622 11.3492 61.4036 12.699 60.8903C13.2465 60.666 13.8396 60.552 14.4821 60.552C15.7026 60.552 17.0866 60.9208 18.6302 61.6622H26.0101V61.5177C26.0101 61.358 25.7933 61.1641 25.3599 60.9398C24.9265 60.7154 24.1774 60.5215 23.1167 60.3618H22.8277C21.6377 60.3618 20.5122 59.8866 19.4515 58.9399C18.3907 57.9932 17.3603 57.2441 16.3642 56.6966C15.752 56.3773 15.4327 55.8754 15.3984 55.2024C15.3984 54.4002 15.8471 53.385 16.7482 52.1646C18.2272 50.2369 20.9609 46.9899 24.9455 42.4236H24.9949C27.1811 40.1728 28.6449 39.0474 29.3825 39.0474C29.4775 39.0474 29.5764 39.0778 29.6715 39.1424C31.4698 40.0435 32.3899 40.8648 32.4204 41.6024C33.0629 43.5947 35.5077 46.5375 39.7508 50.427L42.9826 53.4154C45.298 55.6967 46.4539 57.0959 46.4539 57.6129V57.708C46.6782 59.2821 46.9291 60.3352 47.2029 60.8675C47.4766 61.396 48.0773 61.6622 49.0127 61.6622C49.8149 61.6622 50.8453 61.5177 52.0999 61.2287C52.6132 61.0994 53.1759 61.0348 53.7881 61.0348C54.9781 61.0348 56.4571 61.2439 58.2251 61.6622C59.803 61.7154 61.1033 61.7458 62.1336 61.7458ZM62.1336 61.7952C63.6773 61.7952 64.529 61.7648 64.6886 61.7002V60.9778C64.6582 60.8827 64.3046 60.7383 63.6279 60.5443L61.9397 60.2554L60.6394 60.1603C58.1301 59.7421 56.2518 59.1224 54.9971 58.3049C53.7424 57.4837 51.7958 56.3849 49.1609 55.0009C49.0659 54.9705 49.0012 54.9211 48.967 54.8564C45.0129 49.5525 39.804 43.1688 33.3405 35.7091L31.6523 34.8423H30.3026C28.9833 34.8423 26.991 35.6635 24.3219 37.3022C24.3219 37.3326 24.3067 37.3516 24.2725 37.3516C19.7404 39.5074 16.4896 42.9939 14.5316 47.8188C12.5393 52.8033 10.8664 56.2898 9.51661 58.2821C9.51661 58.3163 9.5014 58.3315 9.46718 58.3315C8.72578 59.3277 8.35698 60.1793 8.35698 60.8865C8.35698 60.9512 8.37218 61.0386 8.4064 61.1527C8.43682 61.2667 8.54328 61.377 8.71817 61.4911C8.89307 61.6051 9.19343 61.6774 9.61166 61.7078C10.3189 61.7078 11.3492 61.4492 12.699 60.936C13.2465 60.7116 13.8396 60.5976 14.4821 60.5976C15.7026 60.5976 17.0866 60.9664 18.6302 61.7078H26.0101V61.5633C26.0101 61.4036 25.7933 61.2097 25.3599 60.9854C24.9265 60.7611 24.1774 60.5672 23.1167 60.4075H22.8277C21.6377 60.4075 20.5122 59.9322 19.4515 58.9855C18.3907 58.0388 17.3603 57.2898 16.3642 56.7423C15.752 56.4229 15.4327 55.921 15.3984 55.248C15.3984 54.4458 15.8471 53.4307 16.7482 52.2102C18.2272 50.2825 20.9609 47.0355 24.9455 42.4692H24.9949C27.1811 40.2184 28.6449 39.093 29.3825 39.093C29.4775 39.093 29.5764 39.1234 29.6715 39.1881C31.4698 40.0891 32.3899 40.9104 32.4204 41.648C33.0629 43.6403 35.5077 46.5831 39.7508 50.4726L42.9826 53.4649C45.298 55.7461 46.4539 57.1453 46.4539 57.6624V57.7574C46.6782 59.3315 46.9291 60.3847 47.2029 60.917C47.4766 61.4492 48.0773 61.7116 49.0127 61.7116C49.8149 61.7116 50.8453 61.5671 52.0999 61.2781C52.6132 61.1489 53.1759 61.0842 53.7881 61.0842C54.9781 61.0842 56.4571 61.2934 58.2251 61.7116C59.803 61.7648 61.1033 61.7952 62.1336 61.7952ZM40.188 20.8012V16.847H8.84364V20.8012H40.188ZM40.188 20.8506V16.8964H8.84364V20.8506H40.188ZM61.2173 49.7883C59.3201 49.5639 58.3734 48.7921 58.3734 47.4728V47.4234C58.3734 46.0736 58.8867 44.1764 59.917 41.7316V18.5351C59.7231 16.6379 58.7422 15.6912 56.9742 15.6912C55.3355 15.6912 54.3204 16.6417 53.9364 18.5351V41.7316C54.9667 43.9483 55.48 45.7657 55.48 47.18C55.48 48.7541 54.5485 49.6248 52.6817 49.7845C50.7844 49.5601 49.8377 48.7883 49.8377 47.469V47.4196C49.8681 46.0698 50.3852 44.1726 51.3814 41.7278V19.5959C51.3814 16.8622 52.2977 14.984 54.1303 13.9536C55.0618 13.4061 55.9933 13.1324 56.9286 13.1324C57.8943 13.1324 58.841 13.4061 59.7726 13.9536C61.5747 14.9498 62.472 16.7824 62.472 19.4514V41.7316C63.5024 43.9483 64.0157 45.7657 64.0157 47.18C64.0157 48.7579 63.0804 49.6248 61.2173 49.7883ZM61.2173 49.8339C59.3201 49.6096 58.3734 48.8377 58.3734 47.5184V47.469C58.3734 46.1192 58.8867 44.222 59.917 41.7773V18.5846C59.7231 16.6873 58.7422 15.7406 56.9742 15.7406C55.3355 15.7406 54.3204 16.6911 53.9364 18.5846V41.7811C54.9667 43.9977 55.48 45.8151 55.48 47.2295C55.48 48.8035 54.5485 49.6742 52.6817 49.8339C50.7844 49.6096 49.8377 48.8377 49.8377 47.5184V47.469C49.8681 46.1192 50.3852 44.222 51.3814 41.7773V19.6453C51.3814 16.9116 52.2977 15.0334 54.1303 14.0031C55.0618 13.4556 55.9933 13.1818 56.9286 13.1818C57.8943 13.1818 58.841 13.4556 59.7726 14.0031C61.5747 14.9992 62.472 16.8318 62.472 19.5009V41.7811C63.5024 43.9977 64.0157 45.8151 64.0157 47.2295C64.0157 48.8073 63.0804 49.6742 61.2173 49.8339Z" fill="black"/>
</svg>
